# xmcd
#
# Track frame offsets: 
#        150
#        8921
#        20165
#        40738
#        51771
#        65612
#        88322
#        100895
#        119065
#        135289
#        153940
#        175367
#        195929
#        210868
#        222041
#        242233
#        281724
#        299495
#        314792
#
# Disc length: 4381 seconds
#
# Revision: 1
# Processed by: cddbd v1.5.2PL0 Copyright (c) Steve Scherf et al.
# Submitted via: ExactAudioCopy v1.1
#
DISCID=1c111b13
DTITLE=Cuby and Blizzards - Non-Album Singles, B-Sides and More
DYEAR=2016
DGENRE=Blues
TTITLE0=Stumble and Fall
TTITLE1=I'm So Restless
TTITLE2=Back Home
TTITLE3=Sweet Mary
TTITLE4=Distant Smile
TTITLE5=Don't Know Which Way To Go
TTITLE6=The Sunshine Of Your Shadow
TTITLE7=Crying Tears
TTITLE8=Nostalgic Toilet
TTITLE9=116 A Queensway
TTITLE10=King Of The World (USA Version)
TTITLE11=No Shoes (USA Version)
TTITLE12=Big Blue-Eyed Girl (USA Version)
TTITLE13=Going Home (USA Version)
TTITLE14=Liquor Blues
TTITLE15=Last Minute Flight
TTITLE16=Stranger (Live At TROS Muziekcafé)
TTITLE17=Baghdad Blues (Live At TROS Muziekcafé)
TTITLE18=Just For Fun (Live At TROS Muziekcafé)
EXTD=
EXTT0=
EXTT1=
EXTT2=
EXTT3=
EXTT4=
EXTT5=
EXTT6=
EXTT7=
EXTT8=
EXTT9=
EXTT10=
EXTT11=
EXTT12=
EXTT13=
EXTT14=
EXTT15=
EXTT16=
EXTT17=
EXTT18=
PLAYORDER=
